<svg data-v-29081953="" xmlns="http://www.w3.org/2000/svg" viewBox="0 0 300 300"><!----><defs data-v-29081953=""><!----></defs><rect data-v-29081953="" fill="#0B173D" x="0" y="0" width="300px" height="300px" class="logo-background-square"></rect><defs data-v-29081953=""><!----></defs><g data-v-29081953="" id="8bd49b0c-5b70-4d66-8151-4c9a4624d68d" fill="#D1A103" transform="matrix(1.6701998012348376,0,0,1.6701998012348376,18.346502180849246,158.37367587095025)"><path d="M4.49 19.18L4.49 19.18Q2.91 19.18 1.95 18.71L1.95 18.71L1.95 18.71Q0.99 18.24 0.99 17.40L0.99 17.40L0.99 17.40Q0.99 17.09 1.16 16.82L1.16 16.82L1.16 16.82Q1.32 16.55 1.60 16.38L1.60 16.38L1.60 16.38Q2.03 17.23 2.78 17.69L2.78 17.69L2.78 17.69Q3.53 18.14 4.41 18.14L4.41 18.14L4.41 18.14Q5.61 18.14 6.34 17.72L6.34 17.72L6.34 17.72Q7.07 17.30 7.07 16.52L7.07 16.52L7.07 16.52Q7.07 16.13 6.78 15.83L6.78 15.83L6.78 15.83Q6.50 15.54 6.05 15.34L6.05 15.34L6.05 15.34Q5.61 15.13 4.86 14.85L4.86 14.85L4.86 14.85Q3.82 14.48 3.19 14.14L3.19 14.14L3.19 14.14Q2.55 13.80 2.09 13.24L2.09 13.24L2.09 13.24Q1.62 12.67 1.62 11.83L1.62 11.83L1.62 11.83Q1.62 10.92 2.25 10.20L2.25 10.20L2.25 10.20Q2.87 9.48 4.00 9.07L4.00 9.07L4.00 9.07Q5.12 8.67 6.59 8.67L6.59 8.67L6.59 8.67Q7.45 8.67 8.13 8.84L8.13 8.84L8.13 8.84Q8.81 9.02 9.19 9.32L9.19 9.32L9.19 9.32Q9.58 9.63 9.58 10.04L9.58 10.04L9.58 10.04Q9.58 10.63 9.19 10.94L9.19 10.94L9.19 10.94Q8.81 11.26 8.18 11.26L8.18 11.26L8.18 11.26Q6.90 11.26 6.44 9.74L6.44 9.74L6.44 9.74Q5.03 9.91 4.23 10.42L4.23 10.42L4.23 10.42Q3.43 10.93 3.43 11.63L3.43 11.63L3.43 11.63Q3.43 12.00 3.71 12.27L3.71 12.27L3.71 12.27Q3.99 12.54 4.41 12.73L4.41 12.73L4.41 12.73Q4.83 12.92 5.60 13.22L5.60 13.22L5.60 13.22Q6.62 13.58 7.28 13.92L7.28 13.92L7.28 13.92Q7.94 14.25 8.41 14.81L8.41 14.81L8.41 14.81Q8.88 15.37 8.88 16.20L8.88 16.20L8.88 16.20Q8.88 17.01 8.37 17.69L8.37 17.69L8.37 17.69Q7.85 18.37 6.87 18.77L6.87 18.77L6.87 18.77Q5.88 19.18 4.49 19.18L4.49 19.18ZM13.66 9.24L13.66 9.24Q13.22 9.24 12.95 9.02L12.95 9.02L12.95 9.02Q12.68 8.81 12.68 8.44L12.68 8.44L12.68 8.44Q12.68 8.02 13.03 7.71L13.03 7.71L13.03 7.71Q13.38 7.39 13.93 7.39L13.93 7.39L13.93 7.39Q14.39 7.39 14.65 7.61L14.65 7.61L14.65 7.61Q14.91 7.83 14.91 8.18L14.91 8.18L14.91 8.18Q14.91 8.62 14.56 8.93L14.56 8.93L14.56 8.93Q14.21 9.24 13.66 9.24L13.66 9.24ZM12.42 19.18L12.42 19.18Q11.94 19.18 11.70 18.94L11.70 18.94L11.70 18.94Q11.47 18.70 11.47 18.19L11.47 18.19L11.47 18.19Q11.47 17.61 11.74 16.14L11.74 16.14L11.74 16.14Q12.01 14.67 12.67 11.72L12.67 11.72L12.05 11.02L12.05 11.02Q12.39 10.75 12.83 10.59L12.83 10.59L12.83 10.59Q13.27 10.43 13.64 10.43L13.64 10.43L13.64 10.43Q14.06 10.43 14.23 10.61L14.23 10.61L14.23 10.61Q14.41 10.78 14.41 11.20L14.41 11.20L14.41 11.20Q14.41 11.31 14.14 12.40L14.14 12.40L14.14 12.40Q13.71 14.18 13.42 15.62L13.42 15.62L13.42 15.62Q13.13 17.07 13.13 18.06L13.13 18.06L13.13 18.06Q13.13 18.59 13.38 18.80L13.38 18.80L13.38 18.80Q12.92 19.18 12.42 19.18L12.42 19.18ZM17.86 19.18L17.86 19.18Q17.37 19.18 17.14 18.93L17.14 18.93L17.14 18.93Q16.91 18.68 16.91 18.19L16.91 18.19L16.91 18.19Q16.91 17.49 17.31 15.48L17.31 15.48L17.31 15.48Q17.71 13.48 18.13 11.83L18.13 11.83L17.50 11.13L17.50 11.13Q17.84 10.84 18.29 10.65L18.29 10.65L18.29 10.65Q18.75 10.47 19.11 10.47L19.11 10.47L19.11 10.47Q19.53 10.47 19.70 10.64L19.70 10.64L19.70 10.64Q19.87 10.81 19.87 11.24L19.87 11.24L19.87 11.24Q19.87 11.61 19.75 12.07L19.75 12.07L19.75 12.07Q19.63 12.53 19.43 12.92L19.43 12.92L19.57 12.99L19.57 12.99Q20.29 11.63 21.13 11.03L21.13 11.03L21.13 11.03Q21.98 10.43 23.02 10.43L23.02 10.43L23.02 10.43Q24.70 10.43 24.70 12.19L24.70 12.19L24.70 12.19Q24.70 12.54 24.60 12.92L24.60 12.92L24.74 12.99L24.74 12.99Q25.48 11.63 26.35 11.03L26.35 11.03L26.35 11.03Q27.22 10.43 28.27 10.43L28.27 10.43L28.27 10.43Q29.18 10.43 29.62 10.89L29.62 10.89L29.62 10.89Q30.07 11.34 30.07 12.29L30.07 12.29L30.07 12.29Q30.07 12.85 29.95 13.45L29.95 13.45L29.95 13.45Q29.83 14.06 29.61 14.97L29.61 14.97L29.61 14.97Q29.34 16.03 29.22 16.71L29.22 16.71L29.22 16.71Q29.09 17.39 29.09 18.06L29.09 18.06L29.09 18.06Q29.09 18.58 29.26 18.79L29.26 18.79L29.26 18.79Q28.85 19.18 28.39 19.18L28.39 19.18L28.39 19.18Q27.43 19.18 27.43 18.16L27.43 18.16L27.43 18.16Q27.43 17.63 27.55 16.95L27.55 16.95L27.55 16.95Q27.66 16.27 27.90 15.25L27.90 15.25L27.90 15.25Q28.13 14.25 28.22 13.71L28.22 13.71L28.22 13.71Q28.32 13.16 28.32 12.75L28.32 12.75L28.32 12.75Q28.32 12.19 28.12 11.91L28.12 11.91L28.12 11.91Q27.92 11.62 27.45 11.62L27.45 11.62L27.45 11.62Q26.66 11.62 25.81 12.46L25.81 12.46L25.81 12.46Q24.96 13.30 24.40 14.78L24.40 14.78L24.40 14.78Q23.83 16.25 23.83 18.06L23.83 18.06L23.83 18.06Q23.83 18.59 24.01 18.79L24.01 18.79L24.01 18.79Q23.60 19.18 23.13 19.18L23.13 19.18L23.13 19.18Q22.18 19.18 22.18 18.16L22.18 18.16L22.18 18.16Q22.18 17.63 22.30 16.95L22.30 16.95L22.30 16.95Q22.41 16.27 22.65 15.25L22.65 15.25L22.65 15.25Q22.88 14.25 22.97 13.71L22.97 13.71L22.97 13.71Q23.07 13.16 23.07 12.75L23.07 12.75L23.07 12.75Q23.07 11.62 22.20 11.62L22.20 11.62L22.20 11.62Q21.41 11.62 20.56 12.46L20.56 12.46L20.56 12.46Q19.71 13.30 19.15 14.78L19.15 14.78L19.15 14.78Q18.58 16.25 18.58 18.06L18.58 18.06L18.58 18.06Q18.58 18.58 18.75 18.79L18.75 18.79L18.75 18.79Q18.34 19.18 17.86 19.18L17.86 19.18ZM35.48 19.18L35.48 19.18Q33.94 19.18 33.06 18.28L33.06 18.28L33.06 18.28Q32.19 17.39 32.19 15.79L32.19 15.79L32.19 15.79Q32.19 14.28 32.86 13.06L32.86 13.06L32.86 13.06Q33.53 11.83 34.69 11.13L34.69 11.13L34.69 11.13Q35.85 10.43 37.24 10.43L37.24 10.43L37.24 10.43Q38.12 10.43 38.63 10.72L38.63 10.72L38.63 10.72Q39.14 11.00 39.14 11.51L39.14 11.51L39.14 11.51Q39.14 11.93 38.81 12.22L38.81 12.22L38.81 12.22Q38.49 12.50 38.00 12.50L38.00 12.50L38.00 12.50Q36.88 12.50 36.37 11.49L36.37 11.49L36.37 11.49Q35.29 11.97 34.60 13.17L34.60 13.17L34.60 13.17Q33.91 14.36 33.91 15.88L33.91 15.88L33.91 15.88Q33.91 16.98 34.32 17.61L34.32 17.61L34.32 17.61Q34.73 18.24 35.46 18.24L35.46 18.24L35.46 18.24Q36.34 18.24 36.92 17.61L36.92 17.61L36.92 17.61Q37.49 16.97 37.55 16.00L37.55 16.00L37.55 16.00Q38.68 16.00 38.68 16.86L38.68 16.86L38.68 16.86Q38.68 17.49 38.25 18.02L38.25 18.02L38.25 18.02Q37.81 18.55 37.08 18.87L37.08 18.87L37.08 18.87Q36.34 19.18 35.48 19.18L35.48 19.18ZM41.89 19.18L41.89 19.18Q40.92 19.18 40.92 18.19L40.92 18.19L40.92 18.19Q40.92 17.70 41.16 16.35L41.16 16.35L41.16 16.35Q41.40 14.99 41.96 12.10L41.96 12.10L41.96 12.10Q42.50 9.28 42.50 9.28L42.50 9.28L41.89 8.58L41.89 8.58Q42.21 8.30 42.66 8.14L42.66 8.14L42.66 8.14Q43.12 7.98 43.50 7.98L43.50 7.98L43.50 7.98Q43.89 7.98 44.06 8.16L44.06 8.16L44.06 8.16Q44.23 8.33 44.23 8.75L44.23 8.75L44.23 8.75Q44.23 9.02 44.14 9.44L44.14 9.44L44.14 9.44Q44.06 9.87 43.86 10.65L43.86 10.65L43.86 10.65Q43.48 12.18 43.32 13.02L43.32 13.02L43.46 13.09L43.46 13.09Q44.23 11.70 45.23 11.07L45.23 11.07L45.23 11.07Q46.24 10.43 47.26 10.43L47.26 10.43L47.26 10.43Q48.16 10.43 48.61 10.89L48.61 10.89L48.61 10.89Q49.06 11.34 49.06 12.29L49.06 12.29L49.06 12.29Q49.06 12.85 48.94 13.45L48.94 13.45L48.94 13.45Q48.82 14.06 48.59 14.97L48.59 14.97L48.59 14.97Q48.33 16.03 48.20 16.71L48.20 16.71L48.20 16.71Q48.08 17.39 48.08 18.06L48.08 18.06L48.08 18.06Q48.08 18.59 48.26 18.79L48.26 18.79L48.26 18.79Q47.82 19.18 47.36 19.18L47.36 19.18L47.36 19.18Q46.87 19.18 46.65 18.93L46.65 18.93L46.65 18.93Q46.42 18.68 46.42 18.19L46.42 18.19L46.42 18.19Q46.42 17.65 46.54 16.99L46.54 16.99L46.54 16.99Q46.66 16.32 46.89 15.26L46.89 15.26L46.89 15.26Q47.10 14.38 47.20 13.78L47.20 13.78L47.20 13.78Q47.31 13.19 47.31 12.75L47.31 12.75L47.31 12.75Q47.31 11.62 46.45 11.62L46.45 11.62L46.45 11.62Q45.60 11.62 44.70 12.46L44.70 12.46L44.70 12.46Q43.79 13.30 43.19 14.78L43.19 14.78L43.19 14.78Q42.59 16.25 42.59 18.06L42.59 18.06L42.59 18.06Q42.59 18.58 42.76 18.79L42.76 18.79L42.76 18.79Q42.35 19.18 41.89 19.18L41.89 19.18ZM58.34 18.06L58.34 18.06Q58.34 18.55 58.59 18.79L58.59 18.79L58.59 18.79Q58.16 19.18 57.65 19.18L57.65 19.18L57.65 19.18Q57.18 19.18 56.92 18.89L56.92 18.89L56.92 18.89Q56.67 18.59 56.67 18.03L56.67 18.03L56.67 18.03Q56.67 17.72 56.77 17.19L56.77 17.19L56.63 17.12L56.63 17.12Q56.13 18.10 55.36 18.64L55.36 18.64L55.36 18.64Q54.60 19.18 53.70 19.18L53.70 19.18L53.70 19.18Q52.95 19.18 52.37 18.77L52.37 18.77L52.37 18.77Q51.79 18.37 51.47 17.62L51.47 17.62L51.47 17.62Q51.16 16.87 51.16 15.89L51.16 15.89L51.16 15.89Q51.16 14.38 51.87 13.13L51.87 13.13L51.87 13.13Q52.58 11.87 53.82 11.15L53.82 11.15L53.82 11.15Q55.05 10.43 56.53 10.43L56.53 10.43L56.53 10.43Q57.18 10.43 57.85 10.54L57.85 10.54L57.85 10.54Q57.95 10.71 58.00 10.99L58.00 10.99L58.00 10.99Q58.30 10.78 58.67 10.78L58.67 10.78L58.67 10.78Q59.02 10.78 59.23 10.95L59.23 10.95L59.23 10.95Q59.43 11.12 59.43 11.41L59.43 11.41L59.43 11.41Q59.43 11.73 59.34 12.18L59.34 12.18L59.34 12.18Q59.25 12.63 59.04 13.50L59.04 13.50L59.04 13.50Q58.70 14.91 58.52 15.95L58.52 15.95L58.52 15.95Q58.34 16.98 58.34 18.06L58.34 18.06ZM54.38 17.86L54.38 17.86Q55.68 17.86 56.52 16.21L56.52 16.21L56.52 16.21Q57.36 14.55 57.78 11.20L57.78 11.20L57.78 11.20Q56.27 11.24 55.15 11.87L55.15 11.87L55.15 11.87Q54.04 12.49 53.46 13.52L53.46 13.52L53.46 13.52Q52.88 14.56 52.88 15.85L52.88 15.85L52.88 15.85Q52.88 16.80 53.27 17.33L53.27 17.33L53.27 17.33Q53.66 17.86 54.38 17.86L54.38 17.86ZM72.97 20.43L72.97 20.43Q72.97 20.90 73.21 21.10L73.21 21.10L73.21 21.10Q72.76 21.42 72.24 21.42L72.24 21.42L72.24 21.42Q71.75 21.42 71.52 21.21L71.52 21.21L71.52 21.21Q71.29 21 71.29 20.54L71.29 20.54L71.29 20.54Q71.29 19.98 71.58 18.69L71.58 18.69L71.58 18.69Q70.76 19.25 69.79 19.25L69.79 19.25L69.79 19.25Q67.93 19.25 66.87 18.18L66.87 18.18L66.87 18.18Q65.81 17.11 65.81 15.19L65.81 15.19L65.81 15.19Q65.81 13.37 66.65 11.87L66.65 11.87L66.65 11.87Q67.49 10.37 68.92 9.52L68.92 9.52L68.92 9.52Q70.35 8.67 72.04 8.67L72.04 8.67L72.04 8.67Q73.09 8.67 73.67 8.99L73.67 8.99L73.67 8.99Q74.26 9.31 74.26 9.88L74.26 9.88L74.26 9.88Q74.26 10.37 73.87 10.70L73.87 10.70L73.87 10.70Q73.49 11.02 72.90 11.02L72.90 11.02L72.90 11.02Q71.54 11.02 70.94 9.86L70.94 9.86L70.94 9.86Q69.99 10.25 69.23 11.05L69.23 11.05L69.23 11.05Q68.47 11.84 68.04 12.94L68.04 12.94L68.04 12.94Q67.61 14.04 67.61 15.30L67.61 15.30L67.61 15.30Q67.61 16.67 68.17 17.44L68.17 17.44L68.17 17.44Q68.73 18.20 69.72 18.20L69.72 18.20L69.72 18.20Q70.56 18.20 71.20 17.77L71.20 17.77L71.20 17.77Q71.85 17.33 72.23 16.58L72.23 16.58L72.23 16.58Q72.60 15.82 72.66 14.88L72.66 14.88L71.75 14.25L71.75 14.25Q72.11 13.93 72.61 13.74L72.61 13.74L72.61 13.74Q73.11 13.55 73.51 13.55L73.51 13.55L73.51 13.55Q73.93 13.55 74.12 13.71L74.12 13.71L74.12 13.71Q74.30 13.86 74.30 14.24L74.30 14.24L74.30 14.24Q74.30 14.36 74.02 15.34L74.02 15.34L74.02 15.34Q73.56 16.97 73.26 18.25L73.26 18.25L73.26 18.25Q72.97 19.53 72.97 20.43L72.97 20.43ZM77.80 19.18L77.80 19.18Q76.85 19.18 76.85 18.02L76.85 18.02L76.85 18.02Q76.85 17.44 77.23 15.49L77.23 15.49L77.23 15.49Q77.62 13.54 78.06 11.83L78.06 11.83L77.45 11.13L77.45 11.13Q78.25 10.47 78.83 10.47L78.83 10.47L78.83 10.47Q79.23 10.47 79.41 10.69L79.41 10.69L79.41 10.69Q79.59 10.91 79.59 11.24L79.59 11.24L79.59 11.24Q79.59 11.68 79.44 12.19L79.44 12.19L79.44 12.19Q79.30 12.70 79.02 13.38L79.02 13.38L79.16 13.45L79.16 13.45Q80.44 10.42 81.91 10.42L81.91 10.42L81.91 10.42Q82.84 10.42 82.84 11.24L82.84 11.24L82.84 11.24Q82.84 11.70 82.47 11.98L82.47 11.98L82.47 11.98Q82.11 12.26 81.52 12.26L81.52 12.26L81.52 12.26Q80.78 12.26 80.08 13.10L80.08 13.10L80.08 13.10Q79.38 13.94 78.95 15.29L78.95 15.29L78.95 15.29Q78.51 16.63 78.51 18.06L78.51 18.06L78.51 18.06Q78.51 18.58 78.68 18.79L78.68 18.79L78.68 18.79Q78.26 19.18 77.80 19.18L77.80 19.18ZM90.52 12.43L90.52 12.43Q90.52 13.87 89.05 14.69L89.05 14.69L89.05 14.69Q87.57 15.51 84.84 15.58L84.84 15.58L84.84 15.85L84.84 15.85Q84.84 16.97 85.26 17.61L85.26 17.61L85.26 17.61Q85.68 18.24 86.41 18.24L86.41 18.24L86.41 18.24Q87.32 18.24 87.89 17.67L87.89 17.67L87.89 17.67Q88.47 17.09 88.52 16.14L88.52 16.14L88.52 16.14Q89.66 16.14 89.66 16.98L89.66 16.98L89.66 16.98Q89.66 17.54 89.21 18.05L89.21 18.05L89.21 18.05Q88.76 18.56 87.98 18.87L87.98 18.87L87.98 18.87Q87.21 19.18 86.27 19.18L86.27 19.18L86.27 19.18Q84.78 19.18 83.94 18.27L83.94 18.27L83.94 18.27Q83.10 17.36 83.10 15.76L83.10 15.76L83.10 15.76Q83.10 14.25 83.76 13.03L83.76 13.03L83.76 13.03Q84.42 11.82 85.58 11.12L85.58 11.12L85.58 11.12Q86.74 10.43 88.17 10.43L88.17 10.43L88.17 10.43Q89.28 10.43 89.90 10.96L89.90 10.96L89.90 10.96Q90.52 11.49 90.52 12.43L90.52 12.43ZM87.93 11.31L87.93 11.31Q87.22 11.31 86.60 11.77L86.60 11.77L86.60 11.77Q85.97 12.22 85.53 13.01L85.53 13.01L85.53 13.01Q85.09 13.80 84.92 14.80L84.92 14.80L84.92 14.80Q86.86 14.76 87.93 14.13L87.93 14.13L87.93 14.13Q89.00 13.50 89.00 12.39L89.00 12.39L89.00 12.39Q89.00 11.90 88.70 11.61L88.70 11.61L88.70 11.61Q88.41 11.31 87.93 11.31L87.93 11.31ZM99.62 12.43L99.62 12.43Q99.62 13.87 98.15 14.69L98.15 14.69L98.15 14.69Q96.67 15.51 93.94 15.58L93.94 15.58L93.94 15.85L93.94 15.85Q93.94 16.97 94.36 17.61L94.36 17.61L94.36 17.61Q94.78 18.24 95.51 18.24L95.51 18.24L95.51 18.24Q96.42 18.24 96.99 17.67L96.99 17.67L96.99 17.67Q97.57 17.09 97.62 16.14L97.62 16.14L97.62 16.14Q98.76 16.14 98.76 16.98L98.76 16.98L98.76 16.98Q98.76 17.54 98.31 18.05L98.31 18.05L98.31 18.05Q97.86 18.56 97.08 18.87L97.08 18.87L97.08 18.87Q96.31 19.18 95.37 19.18L95.37 19.18L95.37 19.18Q93.88 19.18 93.04 18.27L93.04 18.27L93.04 18.27Q92.20 17.36 92.20 15.76L92.20 15.76L92.20 15.76Q92.20 14.25 92.86 13.03L92.86 13.03L92.86 13.03Q93.52 11.82 94.68 11.12L94.68 11.12L94.68 11.12Q95.84 10.43 97.27 10.43L97.27 10.43L97.27 10.43Q98.38 10.43 99.00 10.96L99.00 10.96L99.00 10.96Q99.62 11.49 99.62 12.43L99.62 12.43ZM97.03 11.31L97.03 11.31Q96.32 11.31 95.70 11.77L95.70 11.77L95.70 11.77Q95.07 12.22 94.63 13.01L94.63 13.01L94.63 13.01Q94.19 13.80 94.02 14.80L94.02 14.80L94.02 14.80Q95.96 14.76 97.03 14.13L97.03 14.13L97.03 14.13Q98.10 13.50 98.10 12.39L98.10 12.39L98.10 12.39Q98.10 11.90 97.80 11.61L97.80 11.61L97.80 11.61Q97.51 11.31 97.03 11.31L97.03 11.31ZM102.62 19.18L102.62 19.18Q102.13 19.18 101.90 18.94L101.90 18.94L101.90 18.94Q101.67 18.70 101.67 18.19L101.67 18.19L101.67 18.19Q101.67 17.57 102.04 15.65L102.04 15.65L102.04 15.65Q102.41 13.72 102.89 11.83L102.89 11.83L102.26 11.13L102.26 11.13Q102.59 10.84 103.05 10.65L103.05 10.65L103.05 10.65Q103.50 10.47 103.87 10.47L103.87 10.47L103.87 10.47Q104.29 10.47 104.45 10.64L104.45 10.64L104.45 10.64Q104.62 10.81 104.62 11.24L104.62 11.24L104.62 11.24Q104.62 11.61 104.50 12.07L104.50 12.07L104.50 12.07Q104.38 12.53 104.19 12.92L104.19 12.92L104.33 12.99L104.33 12.99Q105.74 10.43 108.00 10.43L108.00 10.43L108.00 10.43Q108.91 10.43 109.35 10.89L109.35 10.89L109.35 10.89Q109.79 11.34 109.79 12.29L109.79 12.29L109.79 12.29Q109.79 12.85 109.67 13.45L109.67 13.45L109.67 13.45Q109.55 14.06 109.33 14.97L109.33 14.97L109.33 14.97Q109.06 16.03 108.93 16.71L108.93 16.71L108.93 16.71Q108.81 17.39 108.81 18.06L108.81 18.06L108.81 18.06Q108.81 18.56 108.99 18.79L108.99 18.79L108.99 18.79Q108.57 19.18 108.09 19.18L108.09 19.18L108.09 19.18Q107.62 19.18 107.39 18.94L107.39 18.94L107.39 18.94Q107.16 18.70 107.16 18.19L107.16 18.19L107.16 18.19Q107.16 17.65 107.27 16.99L107.27 16.99L107.27 16.99Q107.39 16.32 107.62 15.26L107.62 15.26L107.62 15.26Q107.83 14.38 107.93 13.78L107.93 13.78L107.93 13.78Q108.04 13.19 108.04 12.75L108.04 12.75L108.04 12.75Q108.04 11.62 107.18 11.62L107.18 11.62L107.18 11.62Q106.19 11.62 105.30 12.57L105.30 12.57L105.30 12.57Q104.41 13.51 103.87 15.01L103.87 15.01L103.87 15.01Q103.33 16.51 103.33 18.06L103.33 18.06L103.33 18.06Q103.33 18.58 103.50 18.79L103.50 18.79L103.50 18.79Q103.08 19.18 102.62 19.18L102.62 19.18ZM117.60 10.43L117.60 10.43Q118.36 10.43 118.94 10.82L118.94 10.82L118.94 10.82Q119.52 11.20 119.83 11.91L119.83 11.91L119.83 11.91Q120.15 12.61 120.15 13.55L120.15 13.55L120.15 13.55Q120.15 15.12 119.31 16.41L119.31 16.41L119.31 16.41Q118.48 17.70 117.05 18.44L117.05 18.44L117.05 18.44Q115.61 19.18 113.88 19.18L113.88 19.18L113.88 19.18Q113.05 19.18 112.60 18.81L112.60 18.81L112.60 18.81Q112.15 18.44 112.15 17.37L112.15 17.37L112.15 17.37Q112.15 15.67 113.54 9.30L113.54 9.30L112.92 8.60L112.92 8.60Q113.26 8.32 113.71 8.16L113.71 8.16L113.71 8.16Q114.17 7.99 114.53 7.99L114.53 7.99L114.53 7.99Q114.94 7.99 115.11 8.17L115.11 8.17L115.11 8.17Q115.28 8.34 115.28 8.76L115.28 8.76L115.28 8.76Q115.28 9.03 115.17 9.50L115.17 9.50L115.17 9.50Q115.07 9.97 114.86 10.81L114.86 10.81L114.86 10.81Q114.59 11.84 114.42 12.59L114.42 12.59L114.56 12.66L114.56 12.66Q115.09 11.59 115.88 11.01L115.88 11.01L115.88 11.01Q116.66 10.43 117.60 10.43L117.60 10.43ZM113.53 18.27L113.53 18.27Q114.91 18.21 116.03 17.61L116.03 17.61L116.03 17.61Q117.15 17.01 117.79 16.00L117.79 16.00L117.79 16.00Q118.43 14.98 118.43 13.76L118.43 13.76L118.43 13.76Q118.43 12.81 118.03 12.28L118.03 12.28L118.03 12.28Q117.64 11.75 116.93 11.75L116.93 11.75L116.93 11.75Q116.06 11.75 115.28 12.57L115.28 12.57L115.28 12.57Q114.49 13.40 114.01 14.89L114.01 14.89L114.01 14.89Q113.53 16.38 113.53 18.27L113.53 18.27ZM129.43 18.06L129.43 18.06Q129.43 18.55 129.68 18.79L129.68 18.79L129.68 18.79Q129.25 19.18 128.74 19.18L128.74 19.18L128.74 19.18Q128.27 19.18 128.02 18.89L128.02 18.89L128.02 18.89Q127.76 18.59 127.76 18.03L127.76 18.03L127.76 18.03Q127.76 17.72 127.86 17.19L127.86 17.19L127.72 17.12L127.72 17.12Q127.22 18.10 126.45 18.64L126.45 18.64L126.45 18.64Q125.69 19.18 124.80 19.18L124.80 19.18L124.80 19.18Q124.04 19.18 123.46 18.77L123.46 18.77L123.46 18.77Q122.88 18.37 122.56 17.62L122.56 17.62L122.56 17.62Q122.25 16.87 122.25 15.89L122.25 15.89L122.25 15.89Q122.25 14.38 122.96 13.13L122.96 13.13L122.96 13.13Q123.68 11.87 124.91 11.15L124.91 11.15L124.91 11.15Q126.14 10.43 127.62 10.43L127.62 10.43L127.62 10.43Q128.27 10.43 128.94 10.54L128.94 10.54L128.94 10.54Q129.04 10.71 129.09 10.99L129.09 10.99L129.09 10.99Q129.39 10.78 129.77 10.78L129.77 10.78L129.77 10.78Q130.12 10.78 130.32 10.95L130.32 10.95L130.32 10.95Q130.52 11.12 130.52 11.41L130.52 11.41L130.52 11.41Q130.52 11.73 130.43 12.18L130.43 12.18L130.43 12.18Q130.34 12.63 130.13 13.50L130.13 13.50L130.13 13.50Q129.79 14.91 129.61 15.95L129.61 15.95L129.61 15.95Q129.43 16.98 129.43 18.06L129.43 18.06ZM125.47 17.86L125.47 17.86Q126.77 17.86 127.61 16.21L127.61 16.21L127.61 16.21Q128.45 14.55 128.87 11.20L128.87 11.20L128.87 11.20Q127.36 11.24 126.24 11.87L126.24 11.87L126.24 11.87Q125.13 12.49 124.55 13.52L124.55 13.52L124.55 13.52Q123.97 14.56 123.97 15.85L123.97 15.85L123.97 15.85Q123.97 16.80 124.36 17.33L124.36 17.33L124.36 17.33Q124.75 17.86 125.47 17.86L125.47 17.86ZM139.72 18.06L139.72 18.06Q139.72 18.59 139.96 18.80L139.96 18.80L139.96 18.80Q139.54 19.18 138.99 19.18L138.99 19.18L138.99 19.18Q138.52 19.18 138.28 18.86L138.28 18.86L138.28 18.86Q138.05 18.54 138.05 17.85L138.05 17.85L138.05 17.81L137.91 17.74L137.91 17.74Q137.47 18.37 136.71 18.77L136.71 18.77L136.71 18.77Q135.95 19.18 135.24 19.18L135.24 19.18L135.24 19.18Q134.09 19.18 133.55 18.63L133.55 18.63L133.55 18.63Q133.00 18.07 133.00 16.91L133.00 16.91L133.00 16.91Q133.00 16.34 133.09 15.74L133.09 15.74L133.09 15.74Q133.18 15.13 133.38 14.14L133.38 14.14L133.38 14.14Q133.53 13.37 133.62 12.84L133.62 12.84L133.62 12.84Q133.70 12.31 133.70 11.89L133.70 11.89L133.70 11.89Q133.70 11.27 133.55 10.81L133.55 10.81L133.55 10.81Q133.83 10.64 134.13 10.54L134.13 10.54L134.13 10.54Q134.44 10.43 134.64 10.43L134.64 10.43L134.64 10.43Q135.04 10.43 135.23 10.65L135.23 10.65L135.23 10.65Q135.42 10.86 135.42 11.34L135.42 11.34L135.42 11.34Q135.42 11.69 135.31 12.32L135.31 12.32L135.31 12.32Q135.20 12.95 134.97 14.00L134.97 14.00L134.97 14.00Q134.82 14.77 134.69 15.49L134.69 15.49L134.69 15.49Q134.55 16.21 134.55 16.53L134.55 16.53L134.55 16.53Q134.55 17.33 134.89 17.74L134.89 17.74L134.89 17.74Q135.23 18.14 135.88 18.14L135.88 18.14L135.88 18.14Q136.57 18.14 137.18 17.71L137.18 17.71L137.18 17.71Q137.79 17.28 138.21 16.49L138.21 16.49L138.21 16.49Q138.53 14.73 139.20 11.86L139.20 11.86L138.63 11.02L138.63 11.02Q138.91 10.77 139.37 10.60L139.37 10.60L139.37 10.60Q139.83 10.43 140.21 10.43L140.21 10.43L140.21 10.43Q140.63 10.43 140.80 10.61L140.80 10.61L140.80 10.61Q140.98 10.78 140.98 11.20L140.98 11.20L140.98 11.20Q140.98 11.31 140.71 12.40L140.71 12.40L140.71 12.40Q140.27 14.32 139.99 15.69L139.99 15.69L139.99 15.69Q139.72 17.07 139.72 18.06L139.72 18.06ZM144.45 19.18L144.45 19.18Q143.96 19.18 143.73 18.93L143.73 18.93L143.73 18.93Q143.50 18.68 143.50 18.19L143.50 18.19L143.50 18.19Q143.50 17.49 143.90 15.48L143.90 15.48L143.90 15.48Q144.30 13.48 144.72 11.83L144.72 11.83L144.09 11.13L144.09 11.13Q144.42 10.84 144.88 10.65L144.88 10.65L144.88 10.65Q145.33 10.47 145.70 10.47L145.70 10.47L145.70 10.47Q146.12 10.47 146.29 10.64L146.29 10.64L146.29 10.64Q146.45 10.81 146.45 11.24L146.45 11.24L146.45 11.24Q146.45 11.61 146.33 12.07L146.33 12.07L146.33 12.07Q146.22 12.53 146.02 12.92L146.02 12.92L146.16 12.99L146.16 12.99Q146.87 11.63 147.72 11.03L147.72 11.03L147.72 11.03Q148.57 10.43 149.60 10.43L149.60 10.43L149.60 10.43Q151.28 10.43 151.28 12.19L151.28 12.19L151.28 12.19Q151.28 12.54 151.19 12.92L151.19 12.92L151.33 12.99L151.33 12.99Q152.07 11.63 152.94 11.03L152.94 11.03L152.94 11.03Q153.80 10.43 154.85 10.43L154.85 10.43L154.85 10.43Q155.76 10.43 156.21 10.89L156.21 10.89L156.21 10.89Q156.66 11.34 156.66 12.29L156.66 12.29L156.66 12.29Q156.66 12.85 156.54 13.45L156.54 13.45L156.54 13.45Q156.42 14.06 156.20 14.97L156.20 14.97L156.20 14.97Q155.93 16.03 155.81 16.71L155.81 16.71L155.81 16.71Q155.68 17.39 155.68 18.06L155.68 18.06L155.68 18.06Q155.68 18.58 155.85 18.79L155.85 18.79L155.85 18.79Q155.44 19.18 154.98 19.18L154.98 19.18L154.98 19.18Q154.01 19.18 154.01 18.16L154.01 18.16L154.01 18.16Q154.01 17.63 154.13 16.95L154.13 16.95L154.13 16.95Q154.25 16.27 154.49 15.25L154.49 15.25L154.49 15.25Q154.71 14.25 154.81 13.71L154.81 13.71L154.81 13.71Q154.91 13.16 154.91 12.75L154.91 12.75L154.91 12.75Q154.91 12.19 154.71 11.91L154.71 11.91L154.71 11.91Q154.50 11.62 154.04 11.62L154.04 11.62L154.04 11.62Q153.24 11.62 152.40 12.46L152.40 12.46L152.40 12.46Q151.55 13.30 150.98 14.78L150.98 14.78L150.98 14.78Q150.42 16.25 150.42 18.06L150.42 18.06L150.42 18.06Q150.42 18.59 150.60 18.79L150.60 18.79L150.60 18.79Q150.19 19.18 149.72 19.18L149.72 19.18L149.72 19.18Q148.76 19.18 148.76 18.16L148.76 18.16L148.76 18.16Q148.76 17.63 148.88 16.95L148.88 16.95L148.88 16.95Q149.00 16.27 149.24 15.25L149.24 15.25L149.24 15.25Q149.46 14.25 149.56 13.71L149.56 13.71L149.56 13.71Q149.66 13.16 149.66 12.75L149.66 12.75L149.66 12.75Q149.66 11.62 148.79 11.62L148.79 11.62L148.79 11.62Q147.99 11.62 147.15 12.46L147.15 12.46L147.15 12.46Q146.30 13.30 145.73 14.78L145.73 14.78L145.73 14.78Q145.17 16.25 145.17 18.06L145.17 18.06L145.17 18.06Q145.17 18.58 145.33 18.79L145.33 18.79L145.33 18.79Q144.93 19.18 144.45 19.18L144.45 19.18Z"></path></g><defs data-v-29081953=""><!----></defs><g data-v-29081953="" id="d2a18b43-473f-488e-b5b0-ebfdb6aea334" stroke="none" fill="#D1A103" transform="matrix(0.6419973796756154,0,0,0.6419973796756154,121.65581501383953,100.71466442535512)"><path d="M49.8 57.3L46 68.2V68H15.7l16.8 13h23.1l9.8-30.3-10.8-7.8z"></path><path d="M53.7 39.6l14 10.2-9.5 29.3L75 66.9l7.1-22-25.7-18.6-10.5 7.6z"></path><path d="M81.4 41.9L75 22.2 56.3 8.7 30.8 27.2l4 12.4 21.6-15.8z"></path><path d="M34 42.8l-5.4-16.6L53.2 8H32.5L13.8 21.8 23.5 52h13.2L34 42.8z"></path><path d="M39.4 54H22.1l-9.5-29.1-6.4 19.4L13.4 66h31.5L49 54z"></path></g><!----></svg>